<svg preserveAspectRatio="none" width="100%" height="100%" overflow="visible" style="display: block;" viewBox="0 0 20 20" fill="none" xmlns="http://www.w3.org/2000/svg">
<g id="mi:check">
<rect x="0.5" y="0.5" width="19" height="19" fill="var(--fill-0, #FFF9F9)"/>
<rect x="0.5" y="0.5" width="19" height="19" stroke="var(--stroke-0, #FFF9F9)"/>
<path id="Vector" d="M17.22 4.3775C17.385 4.52432 17.4849 4.73063 17.4979 4.9511C17.5109 5.17158 17.4358 5.38818 17.2892 5.55333L8.40083 15.5533C8.32265 15.6413 8.22672 15.7117 8.11935 15.76C8.01198 15.8082 7.89562 15.8331 7.77792 15.8331C7.66022 15.8331 7.54385 15.8082 7.43648 15.76C7.32912 15.7117 7.23318 15.6413 7.155 15.5533L2.71083 10.5533C2.5726 10.387 2.50441 10.1735 2.52068 9.95792C2.53695 9.74229 2.6364 9.54143 2.79802 9.39777C2.95964 9.25411 3.17077 9.1789 3.38682 9.18802C3.60286 9.19714 3.8069 9.28989 3.95583 9.44667L7.7775 13.7458L16.0442 4.44583C16.1911 4.28096 16.3975 4.18116 16.6179 4.16835C16.8384 4.15553 17.055 4.23076 17.22 4.3775Z" fill="var(--fill-0, #040404)"/>
</g>
</svg>
