<svg preserveAspectRatio="none" width="100%" height="100%" overflow="visible" style="display: block;" viewBox="0 0 36 36" fill="none" xmlns="http://www.w3.org/2000/svg">
<g id="mi:chevron-right">
<rect x="0.5" y="0.5" width="35" height="35" stroke="var(--stroke-0, #B99A7D)"/>
<path id="Vector" d="M13.9395 28.0605C13.6583 27.7792 13.5003 27.3977 13.5003 27C13.5003 26.6023 13.6583 26.2208 13.9395 25.9395L21.879 18L13.9395 10.0605C13.6663 9.7776 13.5151 9.39869 13.5185 9.0054C13.5219 8.6121 13.6797 8.23588 13.9578 7.95777C14.2359 7.67966 14.6121 7.52191 15.0054 7.51849C15.3987 7.51507 15.7776 7.66626 16.0605 7.9395L25.0605 16.9395C25.3417 17.2208 25.4997 17.6023 25.4997 18C25.4997 18.3977 25.3417 18.7792 25.0605 19.0605L16.0605 28.0605C15.7792 28.3417 15.3977 28.4997 15 28.4997C14.6023 28.4997 14.2208 28.3417 13.9395 28.0605Z" fill="var(--fill-0, #B99A7D)"/>
</g>
</svg>
