<svg preserveAspectRatio="none" width="100%" height="100%" overflow="visible" style="display: block;" viewBox="0 0 36 36" fill="none" xmlns="http://www.w3.org/2000/svg">
<g id="mi:chevron-left">
<rect x="0.5" y="0.5" width="35" height="35" stroke="var(--stroke-0, #4E4A47)"/>
<path id="Vector" d="M22.0605 7.9395C22.3417 8.22079 22.4997 8.60225 22.4997 9C22.4997 9.39775 22.3417 9.77921 22.0605 10.0605L14.121 18L22.0605 25.9395C22.3337 26.2224 22.4849 26.6013 22.4815 26.9946C22.4781 27.3879 22.3203 27.7641 22.0422 28.0422C21.7641 28.3203 21.3879 28.4781 20.9946 28.4815C20.6013 28.4849 20.2224 28.3337 19.9395 28.0605L10.9395 19.0605C10.6583 18.7792 10.5003 18.3977 10.5003 18C10.5003 17.6023 10.6583 17.2208 10.9395 16.9395L19.9395 7.9395C20.2208 7.65829 20.6023 7.50032 21 7.50032C21.3977 7.50032 21.7792 7.65829 22.0605 7.9395Z" fill="var(--fill-0, #4E4A47)"/>
</g>
</svg>
