<svg preserveAspectRatio="none" width="100%" height="100%" overflow="visible" style="display: block;" viewBox="0 0 24 24" fill="none" xmlns="http://www.w3.org/2000/svg">
<g id="mage:pinterest">
<path id="Vector" d="M21.535 14.938C20.7238 17.4857 18.9354 19.6078 16.562 20.839C14.1765 22.0784 11.4009 22.3361 8.828 21.557C9.8059 20.0633 10.4631 18.3828 10.758 16.622L11.199 16.963C11.6039 17.2744 12.0746 17.489 12.5751 17.5906C13.0757 17.6922 13.5928 17.6779 14.087 17.549C14.7262 17.4221 15.3333 17.1677 15.872 16.801C16.408 16.4351 16.8642 15.9642 17.213 15.417C17.7684 14.6295 18.144 13.7296 18.3134 12.781C18.4827 11.8323 18.4416 10.858 18.193 9.927C17.9321 8.87809 17.37 7.92843 16.576 7.195C15.7769 6.45756 14.7816 5.96687 13.71 5.782C12.7844 5.55052 11.8222 5.50477 10.8788 5.6474C9.93548 5.79004 9.02975 6.11823 8.214 6.613C7.45593 7.06352 6.81274 7.68378 6.335 8.425C5.8604 9.16369 5.56615 10.0036 5.476 10.877C5.26893 12.2098 5.59829 13.5704 6.392 14.661C6.66487 15.053 7.03685 15.3657 7.47 15.567C7.729 15.695 7.858 15.481 7.944 15.215C8.128 14.693 8.268 14.426 8.052 14C7.65751 13.3985 7.42293 12.7063 7.37043 11.9889C7.31794 11.2715 7.44927 10.5525 7.752 9.9C8.05749 9.24663 8.52242 8.68059 9.104 8.254C9.68948 7.82571 10.373 7.55101 11.092 7.455C12.0896 7.2848 13.1154 7.43425 14.023 7.882C14.6268 8.17953 15.1394 8.63409 15.507 9.198C15.873 9.761 16.079 10.411 16.103 11.079C16.251 12.3629 15.9503 13.6585 15.252 14.746C15.0274 15.1255 14.7146 15.4453 14.34 15.678C13.9636 15.9111 13.5372 16.0516 13.096 16.088C12.8603 16.1181 12.6208 16.0906 12.3981 16.0079C12.1753 15.9251 11.9759 15.7897 11.817 15.613C11.6599 15.4369 11.5489 15.2247 11.4937 14.9952C11.4386 14.7658 11.4411 14.5262 11.501 14.298C11.706 13.456 11.986 12.625 12.201 11.772C12.294 11.425 12.327 11.064 12.299 10.706C12.2871 10.4885 12.2198 10.2776 12.1036 10.0933C11.9874 9.90907 11.8261 9.75751 11.635 9.653C11.4433 9.54684 11.2282 9.49007 11.0091 9.4878C10.79 9.48553 10.5738 9.53784 10.38 9.64C10.074 9.792 9.814 10.02 9.624 10.303C9.435 10.585 9.324 10.912 9.302 11.25C9.17584 11.9046 9.22412 12.5809 9.442 13.211C9.48664 13.3604 9.48664 13.5196 9.442 13.669C9.065 15.289 8.634 16.867 8.365 18.519C8.275 19.29 8.249 20.068 8.289 20.843V21.343C5.93959 20.3884 4.0342 18.5865 2.95 16.294C1.87437 14.0116 1.70601 11.4058 2.479 9.004C3.25746 6.59313 4.91605 4.56427 7.124 3.322C9.34325 2.07092 11.9486 1.69023 14.433 2.254C15.759 2.596 17.002 3.201 18.085 4.032C19.1668 4.8603 20.0679 5.90092 20.733 7.09C21.3974 8.27331 21.8115 9.5806 21.9495 10.9307C22.0874 12.2807 21.9464 13.6447 21.535 14.938Z" fill="var(--fill-0, #B99A7D)"/>
</g>
</svg>
