<svg preserveAspectRatio="none" width="100%" height="100%" overflow="visible" style="display: block;" viewBox="0 0 24 24" fill="none" xmlns="http://www.w3.org/2000/svg">
<g id="mage:telegram">
<path id="Vector" d="M12.077 2.001C13.3972 2.01135 14.7022 2.28302 15.9169 2.80032C17.1315 3.31763 18.2317 4.07033 19.154 5.015C20.0773 5.96001 20.8042 7.07862 21.2927 8.30619C21.7812 9.53377 22.0216 10.846 22 12.167C21.322 25.359 2.444 25.247 2 12.012C1.99077 10.6885 2.24569 9.37642 2.74983 8.15265C3.25397 6.92887 3.9972 5.81797 4.936 4.885C5.87427 3.95298 6.98925 3.21777 8.21552 2.72252C9.44179 2.22727 10.7546 1.98197 12.077 2.001ZM13.895 10.377C13.895 10.377 13.911 10.387 13.788 10.543C13.6373 10.725 13.4739 10.8961 13.299 11.055L10.755 13.525C10.211 14.069 10.222 14.403 10.855 14.859C11.666 15.437 12.488 15.971 13.322 16.539C14.155 17.106 15.177 17.939 15.6 16.716C15.7073 16.3893 15.7887 16.056 15.844 15.716C16.022 14.736 16.2 13.758 16.355 12.768C16.566 11.378 16.766 9.988 16.944 8.586C17.033 7.896 16.666 7.585 15.977 7.752C15.6928 7.81882 15.4143 7.90776 15.144 8.018L7.888 11.078C7.2 11.366 6.511 11.678 5.833 12.012C5.666 12.1 5.455 12.345 5.466 12.512C5.477 12.679 5.711 12.868 5.9 12.946C6.366 13.135 6.866 13.268 7.355 13.424C7.72688 13.551 8.12443 13.584 8.51216 13.52C8.89988 13.4559 9.26572 13.2969 9.577 13.057C10.5 12.399 11.4372 11.7612 12.388 11.144C12.833 10.844 13.144 10.677 13.578 10.376C13.8 10.266 13.85 10.214 13.895 10.281V10.377Z" fill="var(--fill-0, #B99A7D)"/>
</g>
</svg>
